0
SECTION
2
HEADER
9
$INSUNITS
70
4
9
$ACADVER
1
AC1014
9
$HANDSEED
5
FFFF
0
ENDSEC
0
SECTION
2
TABLES
0
TABLE
2
VPORT
5
8
100
AcDbSymbolTable
0
ENDTAB
0
TABLE
2
LTYPE
5
5
100
AcDbSymbolTable
0
LTYPE
5
14
100
AcDbSymbolTableRecord
100
AcDbLinetypeTableRecord
2
BYBLOCK
70
0
0
LTYPE
5
15
100
AcDbSymbolTableRecord
100
AcDbLinetypeTableRecord
2
BYLAYER
70
0
0
LTYPE
5
16
100
AcDbSymbolTableRecord
100
AcDbLinetypeTableRecord
2
DASHED
70
0
3
Dashed __ __ __ __ __ __ __ __ __ __ __ __ __ _
72
65
73
2
40
0.75
49
0.5
74
0
49
-0.25
74
0
0
ENDTAB
0
TABLE
2
LAYER
5
2
100
AcDbSymbolTable
70
2
0
LAYER
5
50
100
AcDbSymbolTableRecord
100
AcDbLayerTableRecord
2
0
70
0
62
7
6
CONTINUOUS
0
ENDTAB
0
TABLE
2
STYLE
5
3
100
AcDbSymbolTable
70
1
0
STYLE
5
11
100
AcDbSymbolTableRecord
100
AcDbTextStyleTableRecord
2
STANDARD
70
0
0
ENDTAB
0
TABLE
2
VIEW
5
6
100
AcDbSymbolTable
70
0
0
ENDTAB
0
TABLE
2
UCS
5
7
100
AcDbSymbolTable
70
0
0
ENDTAB
0
TABLE
2
APPID
5
9
100
AcDbSymbolTable
70
2
0
APPID
5
12
100
AcDbSymbolTableRecord
100
AcDbRegAppTableRecord
2
ACAD
70
0
0
ENDTAB
0
TABLE
2
DIMSTYLE
5
A
100
AcDbSymbolTable
70
1
0
ENDTAB
0
TABLE
2
BLOCK_RECORD
5
1
100
AcDbSymbolTable
70
1
0
BLOCK_RECORD
5
1F
100
AcDbSymbolTableRecord
100
AcDbBlockTableRecord
2
*MODEL_SPACE
0
BLOCK_RECORD
5
1B
100
AcDbSymbolTableRecord
100
AcDbBlockTableRecord
2
*PAPER_SPACE
0
ENDTAB
0
ENDSEC
0
SECTION
2
BLOCKS
0
BLOCK
5
20
100
AcDbEntity
100
AcDbBlockBegin
2
*MODEL_SPACE
0
ENDBLK
5
21
100
AcDbEntity
100
AcDbBlockEnd
0
BLOCK
5
1C
100
AcDbEntity
100
AcDbBlockBegin
2
*PAPER_SPACE
0
ENDBLK
5
1D
100
AcDbEntity
100
AcDbBlockEnd
0
ENDSEC
0
SECTION
2
ENTITIES
0
LWPOLYLINE
5
100
100
AcDbEntity
8
0
100
AcDbPolyline
90
6
70
1
43
0.0
10
4.7717585536914218
20
77.726573137441818
42
3.7794037483506404
10
8.7282414463723725
20
77.726573137441804
10
8.7282414463723885
20
80.70623752369238
42
0.41421356237309503
10
7.2282414463723876
20
82.20623752369238
10
6.2717585536914244
20
82.20623752369238
42
0.41421356237309503
10
4.7717585536914209
20
80.70623752369238
0
LWPOLYLINE
5
101
100
AcDbEntity
8
0
100
AcDbPolyline
90
26
70
1
43
0.0
10
13.750000000063775
20
70.250000000000014
10
13.750000000063775
20
74.249978897161441
42
0.19741313507445263
10
11.72824144637239
20
79.171088507879603
10
11.72824144637238
20
82.206237523692366
42
0.41421356237309354
10
8.7282414463723832
20
85.206237523692394
10
4.7717585536914209
20
85.20623752369238
42
0.41421356237309365
10
1.7717585536914282
20
82.206237523692366
10
1.7717585536914133
20
79.171088507879631
42
0.19741135212736058
10
-0.24999999994810285
20
74.250026947097439
10
-0.25000000000000355
20
70.250000000000014
42
0.41421356237309392
10
-2.2499999999999973
20
68.250000000000014
10
-2.2500000000000058
20
-0.22599695199391867
42
0.41421356237309626
10
-0.250000000000003
20
-2.2259969519939231
10
115.25
20
-2.2259969519939187
42
0.41421356237309542
10
117.25
20
-0.22599695199391934
10
117.25
20
68.250000000000014
42
0.41421356237309503
10
115.25
20
70.25
10
115.25000000000003
20
74.250026947097439
42
0.19741135212736069
10
113.2282414463086
20
79.171088507879631
10
113.2282414463086
20
82.206237523692366
42
0.41421356237308815
10
110.2282414463086
20
85.20623752369238
10
106.27175855362765
20
85.20623752369238
42
0.41421356237308815
10
103.27175855362765
20
82.206237523692366
10
103.27175855362765
20
79.171088507879631
42
0.1974131350744531
10
101.24999999996805
20
74.249978897161441
10
101.24999999993625
20
70.250000000000014
0
LWPOLYLINE
5
102
100
AcDbEntity
8
0
100
AcDbPolyline
90
6
70
1
43
0.0
10
106.27175855362765
20
77.726573137441804
42
3.7794037483506266
10
110.2282414463086
20
77.726573137441804
10
110.2282414463086
20
80.70623752369238
42
0.41421356237309503
10
108.7282414463086
20
82.20623752369238
10
107.77175855362763
20
82.20623752369238
42
0.41421356237309503
10
106.27175855362765
20
80.70623752369238
0
CIRCLE
5
103
100
AcDbEntity
8
0
100
AcDbCircle
10
111.18888487402636
20
65.023622047243975
30
0
40
2.7500000000000036
210
0
220
-0
230
1
0
CIRCLE
5
104
100
AcDbEntity
8
0
100
AcDbCircle
10
3.7466699895967004
20
65.023622047243975
30
0
40
2.7499999999999996
210
0
220
-0
230
1
0
CIRCLE
5
105
100
AcDbEntity
8
0
100
AcDbCircle
10
111.18888487402636
20
5.0795021590041642
30
0
40
2.7500000000000036
210
0
220
-0
230
1
0
CIRCLE
5
106
100
AcDbEntity
8
0
100
AcDbCircle
10
3.7466699895967004
20
5.0795021590041642
30
0
40
2.75
210
0
220
-0
230
1
0
ENDSEC
0
SECTION
2
OBJECTS
0
DICTIONARY
5
C
100
AcDbDictionary
3
ACAD_GROUP
350
D
3
ACAD_MLINESTYLE
350
17
0
DICTIONARY
5
D
100
AcDbDictionary
0
DICTIONARY
5
1A
330
C
100
AcDbDictionary
0
DICTIONARY
5
17
100
AcDbDictionary
0
ENDSEC
0
EOF
